<?xml version="1.0" standalone="no"?>
<!DOCTYPE svg PUBLIC "-//W3C//DTD SVG 20010904//EN"
 "http://www.w3.org/TR/2001/REC-SVG-20010904/DTD/svg10.dtd">
<svg version="1.0" xmlns="http://www.w3.org/2000/svg"
 width="1080.000000pt" height="1080.000000pt" viewBox="0 0 1080.000000 1080.000000"
 preserveAspectRatio="xMidYMid meet">

<g transform="translate(0.000000,1080.000000) scale(0.100000,-0.100000)"
fill="#000000" stroke="none">
<path d="M4680 10309 c-571 -32 -1137 -164 -1660 -386 -1502 -638 -2595 -1971
-2914 -3553 -76 -378 -91 -534 -91 -970 0 -437 13 -574 91 -970 224 -1140 896
-2207 1843 -2929 650 -494 1421 -825 2216 -950 312 -49 403 -56 795 -55 413 0
567 12 895 73 1013 186 1929 674 2650 1412 390 399 669 796 915 1303 325 668
483 1364 483 2121 -1 616 -99 1153 -316 1730 -481 1276 -1514 2323 -2794 2831
-665 264 -1400 383 -2113 343z m58 -2749 c2 -1688 0 -2398 -8 -2455 -17 -124
-47 -248 -97 -395 -179 -536 -588 -1002 -1098 -1250 -323 -157 -602 -222 -960
-223 -331 -1 -585 50 -875 176 -260 112 -466 253 -676 462 -332 329 -522 697
-613 1182 -47 250 -30 708 40 1113 116 670 375 1289 770 1847 257 361 618 734
965 994 580 437 1221 721 1924 853 213 40 513 77 595 73 l30 -2 3 -2375z m577
2370 c1513 -125 2839 -958 3604 -2265 325 -555 521 -1164 593 -1835 20 -192
17 -695 -5 -900 -93 -845 -414 -1638 -931 -2300 -1178 -1511 -3152 -2129
-4986 -1563 -1201 372 -2229 1261 -2767 2393 -67 141 -66 142 48 41 368 -327
840 -544 1344 -617 148 -22 522 -25 665 -6 547 74 1024 294 1416 654 437 400
701 892 805 1503 9 53 11 653 9 2477 -1 1324 1 2412 5 2418 8 12 47 13 200 0z"/>
</g>
</svg>
