<?xml version="1.0" standalone="no"?>
<!DOCTYPE svg PUBLIC "-//W3C//DTD SVG 20010904//EN"
 "http://www.w3.org/TR/2001/REC-SVG-20010904/DTD/svg10.dtd">
<svg version="1.0" xmlns="http://www.w3.org/2000/svg"
 width="1080.000000pt" height="1080.000000pt" viewBox="0 0 1080.000000 1080.000000"
 preserveAspectRatio="xMidYMid meet">

<g transform="translate(0.000000,1080.000000) scale(0.100000,-0.100000)"
fill="#000000" stroke="none">
<path d="M3259 7968 c-20 -11 -46 -37 -57 -57 -19 -35 -20 -55 -23 -566 l-3
-530 23 -45 c13 -25 44 -67 69 -95 84 -92 492 -510 1147 -1175 411 -418 725
-738 1155 -1180 201 -206 401 -411 445 -455 44 -45 95 -99 114 -121 78 -89
732 -752 799 -810 78 -66 165 -114 245 -133 26 -6 102 -11 168 -11 174 0 239
23 275 97 16 35 18 77 18 518 1 521 1 521 -55 591 -27 34 -307 324 -786 813
-94 97 -185 192 -203 211 -39 44 -421 439 -730 755 -403 412 -577 592 -965
996 -66 68 -174 180 -240 249 -66 69 -201 211 -300 315 -402 426 -562 575
-665 621 -70 31 -88 34 -238 33 -138 -1 -161 -3 -193 -21z"/>
<path d="M6684 7971 c-17 -10 -42 -34 -55 -53 l-24 -33 0 -1015 0 -1015 28
-54 c44 -85 16 -55 572 -621 126 -129 258 -267 292 -306 68 -78 92 -91 123
-66 21 17 21 20 18 1537 -3 1460 -4 1521 -22 1556 -10 20 -37 48 -59 63 l-41
26 -401 0 c-375 0 -402 -1 -431 -19z"/>
<path d="M3179 5913 c0 -10 0 -687 -1 -1506 l0 -1487 25 -43 c48 -82 76 -87
481 -87 409 0 444 7 486 90 20 39 20 54 17 1007 -2 533 -7 982 -12 998 -20 72
-96 161 -436 508 -196 199 -380 389 -410 422 -76 84 -111 115 -131 115 -10 0
-18 -8 -19 -17z"/>
</g>
</svg>
